<?xml version="1.0" encoding="UTF-8" standalone="no"?>
<svg
   xmlns:dc="http://purl.org/dc/elements/1.1/"
   xmlns:cc="http://creativecommons.org/ns#"
   xmlns:rdf="http://www.w3.org/1999/02/22-rdf-syntax-ns#"
   xmlns:svg="http://www.w3.org/2000/svg"
   xmlns="http://www.w3.org/2000/svg"
   xmlns:xlink="http://www.w3.org/1999/xlink"
   width="19.049999mm"
   height="12.7mm"
   viewBox="0 0 19.05 12.7"
   version="1.1"
   id="svg51">
  <defs
     id="defs45">
    <g
       id="s">
      <g
         id="c">
        <path
           id="t"
           d="M 0,0 V 1 H 0.5 Z"
           transform="rotate(18,3.1568758,-0.5)" />
        <use
           xlink:href="#t"
           transform="scale(-1,1)"
           id="use56"
           x="0"
           y="0"
           width="100%"
           height="100%" />
      </g>
      <g
         id="a">
        <use
           xlink:href="#c"
           transform="rotate(72)"
           id="use59"
           x="0"
           y="0"
           width="100%"
           height="100%" />
        <use
           xlink:href="#c"
           transform="rotate(144)"
           id="use61"
           x="0"
           y="0"
           width="100%"
           height="100%" />
      </g>
      <use
         xlink:href="#a"
         transform="scale(-1,1)"
         id="use64"
         x="0"
         y="0"
         width="100%"
         height="100%" />
    </g>
  </defs>
  <metadata
     id="metadata48">
    <rdf:RDF>
      <cc:Work
         rdf:about="">
        <dc:format>image/svg+xml</dc:format>
        <dc:type
           rdf:resource="http://purl.org/dc/dcmitype/StillImage" />
        <dc:title></dc:title>
      </cc:Work>
    </rdf:RDF>
  </metadata>
  <g
     id="layer1"
     transform="translate(68.029504,-47.84135)">
    <g
       id="g129"
       transform="matrix(0.08888889,0,0,0.08888889,-61.982437,43.588786)">
      <g
         id="g115"
         transform="matrix(0.26458333,0,0,0.26458333,-68.029504,47.84135)">
        <rect
           fill="#003399"
           width="810"
           height="540"
           id="rect69"
           x="0"
           y="0" />
        <g
           fill="#ffcc00"
           transform="matrix(30,0,0,30,405,270)"
           id="g88">
          <use
             xlink:href="#s"
             y="-6"
             id="use71"
             x="0"
             width="100%"
             height="100%" />
          <use
             xlink:href="#s"
             y="6"
             id="use73"
             x="0"
             width="100%"
             height="100%" />
          <g
             id="l">
            <use
               xlink:href="#s"
               x="-6"
               id="use75"
               y="0"
               width="100%"
               height="100%" />
            <use
               xlink:href="#s"
               transform="rotate(-144,-2.3441661,-2.1106967)"
               id="use77"
               x="0"
               y="0"
               width="100%"
               height="100%" />
            <use
               xlink:href="#s"
               transform="rotate(144,-2.1106967,-2.3441661)"
               id="use79"
               x="0"
               y="0"
               width="100%"
               height="100%" />
            <use
               xlink:href="#s"
               transform="rotate(72,-4.6626491,-2.0759451)"
               id="use81"
               x="0"
               y="0"
               width="100%"
               height="100%" />
            <use
               xlink:href="#s"
               transform="rotate(72,-5.0759451,0.53350333)"
               id="use83"
               x="0"
               y="0"
               width="100%"
               height="100%" />
          </g>
          <use
             xlink:href="#l"
             transform="scale(-1,1)"
             id="use86"
             x="0"
             y="0"
             width="100%"
             height="100%" />
        </g>
      </g>
    </g>
  </g>
</svg>
